<svg xmlns="http://www.w3.org/2000/svg" viewBox="0 0 24 24" id="document">
  <path fill="#0c474d" d="M18.944,4.884l-1.828-1.828c-.52-.52-1.21-.806-1.944-.806H7c-1.517,0-2.75,1.233-2.75,2.75v14c0,1.517,1.233,2.75,2.75,2.75h10c1.517,0,2.75-1.233,2.75-2.75V6.829c0-.735-.286-1.425-.806-1.945Zm-1.061,1.061c.089,.089,.147,.198,.205,.306h-2.089c-.138,0-.25-.112-.25-.25V3.912c.109,.058,.218,.116,.306,.204l1.828,1.828Zm-.884,14.306H7c-.689,0-1.25-.561-1.25-1.25V5c0-.689,.561-1.25,1.25-1.25h7.25v2.25c0,.965,.785,1.75,1.75,1.75h2.25v11.25c0,.689-.561,1.25-1.25,1.25Z"></path>
  <path fill="#3cacb6" d="M15 11.75h-6c-.414 0-.75-.336-.75-.75s.336-.75.75-.75h6c.414 0 .75.336.75.75s-.336.75-.75.75zM15 14.75h-6c-.414 0-.75-.336-.75-.75s.336-.75.75-.75h6c.414 0 .75.336.75.75s-.336.75-.75.75zM13 17.75h-4c-.414 0-.75-.336-.75-.75s.336-.75.75-.75h4c.414 0 .75.336.75.75s-.336.75-.75.75z"></path>
</svg>
